<?xml version="1.0" encoding="UTF-8"?>
<svg version="1.1" xmlns="http://www.w3.org/2000/svg" width="256" height="256">
<path d="M0 0 C33.99 0 67.98 0 103 0 C102.67 1.98 102.34 3.96 102 6 C101.53482166 14.05116359 101.54208798 21.42012838 104.34375 29.046875 C105 31 105 31 105 34 C90.15 34.33 75.3 34.66 60 35 C60 35.66 60 36.32 60 37 C60.58580338 36.99476318 61.17160675 36.98952637 61.77516174 36.98413086 C67.89182129 36.93731638 74.00660489 36.94653814 80.12329102 36.98779297 C82.40355848 36.99588649 84.68392274 36.98985866 86.96411133 36.96923828 C90.24948617 36.94200944 93.53116127 36.96614717 96.81640625 37 C97.83021866 36.9805835 98.84403107 36.96116699 99.88856506 36.94116211 C104.10368071 37.02637355 106.89428354 37.10907854 110.2494812 39.8125 C115 45.14299244 115 45.14299244 115 47 C96.52 47.33 78.04 47.66 59 48 C59 48.99 59 49.98 59 51 C59.75009338 50.98667633 60.50018677 50.97335266 61.27301025 50.95962524 C68.39176144 50.83868441 75.51014831 50.74769274 82.62964249 50.68912697 C86.28870224 50.65800316 89.94690315 50.61588808 93.60546875 50.54736328 C97.14579269 50.48147902 100.68529832 50.44615205 104.22618866 50.43073654 C106.2135878 50.41448795 108.20066416 50.36776213 110.18756104 50.32022095 C117.84651567 50.31742267 123.08231758 51.34228561 129.62347412 55.41513062 C134.7550458 57.82378114 140.47642862 58.72532968 146 60 C146 77.16 146 94.32 146 112 C143.54744998 113.22627501 142.38338039 112.96028596 139.6875 112.625 C138.88183594 112.52960938 138.07617188 112.43421875 137.24609375 112.3359375 C135 112 135 112 132.25 111.25 C128.98921206 110.88769023 127.63843125 112.12288708 125 114 C123.21073842 116.28060016 123.21073842 116.28060016 121.8125 118.875 C121.32394531 119.71804687 120.83539063 120.56109375 120.33203125 121.4296875 C118.7662232 124.34889135 118.7662232 124.34889135 117 129 C88.785 129.495 88.785 129.495 60 130 C60 130.66 60 131.32 60 132 C60.72583282 131.99920441 61.45166565 131.99840881 62.19949341 131.99758911 C69.05565155 131.99537699 75.91116914 132.02188599 82.76706123 132.0802784 C86.29150085 132.10929356 89.81527737 132.12738349 93.33984375 132.12011719 C97.39647217 132.11224067 101.45139917 132.1525797 105.5078125 132.1953125 C107.3971904 132.1816716 107.3971904 132.1816716 109.32473755 132.16775513 C119.09492078 132.32966516 119.09492078 132.32966516 122.84326172 135.86279297 C125 139 125 139 125 142 C103.55 142.33 82.1 142.66 60 143 C60 143.66 60 144.32 60 145 C92.175 145.495 92.175 145.495 125 146 C123.81645155 151.91774225 122.42486403 152.31261331 118 156 C116.39309077 160.177964 117.21484323 162.28905939 118 167 C79.06 167 40.12 167 0 167 C0 111.89 0 56.78 0 0 Z M19 22 C18.91224395 24.14558827 18.89304781 26.29404421 18.90234375 28.44140625 C18.90484131 29.61646729 18.90733887 30.79152832 18.90991211 32.00219727 C18.91901611 33.50709717 18.92812012 35.01199707 18.9375 36.5625 C18.958125 41.326875 18.97875 46.09125 19 51 C28.9 51 38.8 51 49 51 C49.020625 46.235625 49.04125 41.47125 49.0625 36.5625 C49.071604 35.0576001 49.08070801 33.5527002 49.09008789 32.00219727 C49.09258545 30.82713623 49.09508301 29.6520752 49.09765625 28.44140625 C49.10289307 27.23170166 49.10812988 26.02199707 49.11352539 24.77563477 C49.31775285 22.09187983 49.31775285 22.09187983 48 21 C45.9394469 20.90006468 43.8754741 20.86919094 41.8125 20.8671875 C40.55695313 20.86589844 39.30140625 20.86460938 38.0078125 20.86328125 C37.02216309 20.86642334 37.02216309 20.86642334 36.01660156 20.86962891 C34.00838665 20.87497766 32.00039541 20.86968309 29.9921875 20.86328125 C28.73664062 20.86457031 27.48109375 20.86585937 26.1875 20.8671875 C25.02605469 20.86831543 23.86460938 20.86944336 22.66796875 20.87060547 C20.07936716 20.69662526 20.07936716 20.69662526 19 22 Z M60 21 C60 22.32 60 23.64 60 25 C70.56 25 81.12 25 92 25 C92 23.68 92 22.36 92 21 C81.44 21 70.88 21 60 21 Z M19 69 C18.89996711 71.13353174 18.86918952 73.27037542 18.8671875 75.40625 C18.86589844 76.70691406 18.86460938 78.00757812 18.86328125 79.34765625 C18.86537598 80.02844238 18.8674707 80.70922852 18.86962891 81.41064453 C18.8749776 83.49128515 18.8696832 85.57170989 18.86328125 87.65234375 C18.86457031 88.95300781 18.86585937 90.25367188 18.8671875 91.59375 C18.86831543 92.79708984 18.86944336 94.00042969 18.87060547 95.24023438 C18.68544023 97.90984482 18.68544023 97.90984482 20 99 C22.0605531 99.09993532 24.1245259 99.13080906 26.1875 99.1328125 C27.44304688 99.13410156 28.69859375 99.13539063 29.9921875 99.13671875 C30.97783691 99.13357666 30.97783691 99.13357666 31.98339844 99.13037109 C33.99161335 99.12502234 35.99960459 99.13031691 38.0078125 99.13671875 C39.26335938 99.13542969 40.51890625 99.13414062 41.8125 99.1328125 C42.97394531 99.13168457 44.13539062 99.13055664 45.33203125 99.12939453 C47.92063284 99.30337474 47.92063284 99.30337474 49 98 C49.10003289 95.86646826 49.13081048 93.72962458 49.1328125 91.59375 C49.13410156 90.29308594 49.13539062 88.99242187 49.13671875 87.65234375 C49.13462402 86.97155762 49.1325293 86.29077148 49.13037109 85.58935547 C49.1250224 83.50871485 49.1303168 81.42829011 49.13671875 79.34765625 C49.13542969 78.04699219 49.13414063 76.74632813 49.1328125 75.40625 C49.13168457 74.20291016 49.13055664 72.99957031 49.12939453 71.75976562 C49.31455977 69.09015518 49.31455977 69.09015518 48 68 C45.9394469 67.90006468 43.8754741 67.86919094 41.8125 67.8671875 C40.55695313 67.86589844 39.30140625 67.86460938 38.0078125 67.86328125 C37.02216309 67.86642334 37.02216309 67.86642334 36.01660156 67.86962891 C34.00838665 67.87497766 32.00039541 67.86968309 29.9921875 67.86328125 C28.73664062 67.86457031 27.48109375 67.86585937 26.1875 67.8671875 C25.02605469 67.86831543 23.86460938 67.86944336 22.66796875 67.87060547 C20.07936716 67.69662526 20.07936716 67.69662526 19 69 Z M60 68 C60 69.32 60 70.64 60 72 C70.56 72 81.12 72 92 72 C92 71.01 92 70.02 92 69 C90.88652404 67.66003068 90.88652404 67.66003068 88.04077148 67.88647461 C86.10053101 67.89432983 86.10053101 67.89432983 84.12109375 67.90234375 C83.4344313 67.9037587 82.74776886 67.90517365 82.04029846 67.90663147 C79.83932199 67.91224521 77.63844591 67.92479993 75.4375 67.9375 C73.94856917 67.94251324 72.45963676 67.94707645 70.97070312 67.95117188 C67.31376925 67.96221907 63.65689442 67.97949287 60 68 Z M59 82 C59 82.99 59 83.98 59 85 C81.44 85 103.88 85 127 85 C127 84.01 127 83.02 127 82 C124.2411433 80.62057165 122.01714365 80.87278603 118.9296875 80.87060547 C117.65496582 80.86745331 116.38024414 80.86430115 115.06689453 80.86105347 C113.669596 80.8628433 112.27229779 80.86489427 110.875 80.8671875 C109.44775374 80.86651415 108.02050759 80.86554385 106.59326172 80.86428833 C103.60057484 80.86281285 100.60791779 80.86496112 97.61523438 80.86962891 C93.77490871 80.87532612 89.93465293 80.87204631 86.09432983 80.86605644 C83.14672314 80.86244681 80.19913307 80.86359127 77.25152588 80.86618423 C75.83530672 80.86685239 74.41908606 80.86602896 73.00286865 80.86370468 C71.02535022 80.86117163 69.04782651 80.86571543 67.0703125 80.87060547 C65.94383301 80.87140106 64.81735352 80.87219666 63.65673828 80.87301636 C61.02424226 80.81954487 61.02424226 80.81954487 59 82 Z M60 95 C60 96.32 60 97.64 60 99 C81.78 99 103.56 99 126 99 C126.33 97.68 126.66 96.36 127 95 C104.89 95 82.78 95 60 95 Z M19 116 C18.97534254 120.1117256 18.95716041 124.22342278 18.94506836 128.33520508 C18.9400292 129.73495228 18.93319784 131.1346942 18.92456055 132.53442383 C18.9124768 134.54245777 18.90730193 136.55052957 18.90234375 138.55859375 C18.89710693 139.76829834 18.89187012 140.97800293 18.88647461 142.22436523 C18.68224715 144.90812017 18.68224715 144.90812017 20 146 C22.0605531 146.09993532 24.1245259 146.13080906 26.1875 146.1328125 C27.44304688 146.13410156 28.69859375 146.13539063 29.9921875 146.13671875 C30.97783691 146.13357666 30.97783691 146.13357666 31.98339844 146.13037109 C33.99161335 146.12502234 35.99960459 146.13031691 38.0078125 146.13671875 C39.26335938 146.13542969 40.51890625 146.13414062 41.8125 146.1328125 C42.97394531 146.13168457 44.13539062 146.13055664 45.33203125 146.12939453 C47.92063284 146.30337474 47.92063284 146.30337474 49 145 C49.08775605 142.85441173 49.10695219 140.70595579 49.09765625 138.55859375 C49.09282227 136.60083008 49.09282227 136.60083008 49.08789062 134.60351562 C49.07953401 133.2148431 49.07106905 131.82617123 49.0625 130.4375 C49.05748666 129.04492344 49.05292347 127.65234519 49.04882812 126.25976562 C49.03699434 122.8398013 49.0205088 119.41992156 49 116 C46.30734639 114.6536732 44.19885751 114.87037364 41.1875 114.8671875 C39.45113281 114.86525391 39.45113281 114.86525391 37.6796875 114.86328125 C35.85824219 114.86908203 35.85824219 114.86908203 34 114.875 C32.17855469 114.86919922 32.17855469 114.86919922 30.3203125 114.86328125 C29.16273437 114.86457031 28.00515625 114.86585938 26.8125 114.8671875 C25.74644531 114.86831543 24.68039063 114.86944336 23.58203125 114.87060547 C21.0131786 114.82595802 21.0131786 114.82595802 19 116 Z M59 116 C59 116.99 59 117.98 59 119 C63.22192087 121.11096044 68.73192764 120.22688391 73.3762207 120.24023438 C75.42635563 120.2499472 77.47549074 120.28097445 79.52539062 120.3125 C80.81509766 120.31765625 82.10480469 120.3228125 83.43359375 120.328125 C84.62009521 120.3374707 85.80659668 120.34681641 87.02905273 120.35644531 C90.01383789 120.26209136 90.01383789 120.26209136 91.91040039 118.47949219 C92.26996826 117.99125977 92.62953613 117.50302734 93 117 C89.38903046 114.59268697 87.72434331 114.75467227 83.43359375 114.76953125 C82.14388672 114.77146484 80.85417969 114.77339844 79.52539062 114.77539062 C78.85483643 114.78159424 78.18428223 114.78779785 77.4934082 114.79418945 C75.44144297 114.81246488 73.38992882 114.81469891 71.33789062 114.81445312 C64.98276223 114.48224016 64.98276223 114.48224016 59 116 Z " fill="#FD7428" transform="translate(24,47)"/>
<path d="M0 0 C2.04859187 1.44995212 3.92605472 2.98581852 5.80859375 4.64453125 C6.73478516 5.43150391 6.73478516 5.43150391 7.6796875 6.234375 C15.12259899 13.03703604 19.32237384 22.4499633 20.109375 32.4765625 C20.15057047 46.46929028 17.6039469 57.05670444 7.92578125 67.71875 C-1.6350218 76.64087592 -12.89077674 80.2169721 -25.7578125 79.94921875 C-37.58447167 78.89975411 -47.07019639 73.97092133 -55.2890625 65.4765625 C-64.2539798 54.7224685 -66.41891814 42.25753775 -65.19140625 28.64453125 C-62.96288239 18.27871172 -56.62625246 8.12930292 -48.19140625 1.64453125 C-33.44208717 -6.94147184 -15.13548937 -9.36188023 0 0 Z M-23.19140625 12.64453125 C-24.41925434 13.65012919 -24.41925434 13.65012919 -24.30493164 15.68579102 C-24.29707642 16.99761353 -24.29707642 16.99761353 -24.2890625 18.3359375 C-24.28422852 19.75229492 -24.28422852 19.75229492 -24.27929688 21.19726562 C-24.27091797 22.19048828 -24.26253906 23.18371094 -24.25390625 24.20703125 C-24.24939453 25.20412109 -24.24488281 26.20121094 -24.24023438 27.22851562 C-24.22840648 29.70054612 -24.2104704 32.17254597 -24.19140625 34.64453125 C-30.79140625 34.64453125 -37.39140625 34.64453125 -44.19140625 34.64453125 C-44.19140625 35.96453125 -44.19140625 37.28453125 -44.19140625 38.64453125 C-36.60140625 38.64453125 -29.01140625 38.64453125 -21.19140625 38.64453125 C-19.24479743 34.75131361 -19.96297849 29.92662184 -19.94140625 25.64453125 C-19.92078125 24.62101562 -19.90015625 23.5975 -19.87890625 22.54296875 C-19.87375 21.56585938 -19.86859375 20.58875 -19.86328125 19.58203125 C-19.85393555 18.68355469 -19.84458984 17.78507812 -19.83496094 16.859375 C-19.95258789 16.12847656 -20.07021484 15.39757812 -20.19140625 14.64453125 C-21.18140625 13.98453125 -22.17140625 13.32453125 -23.19140625 12.64453125 Z " fill="#FEA72F" transform="translate(194.19140625,23.35546875)"/>
<path d="M0 0 C0.68126953 -0.020625 1.36253906 -0.04125 2.06445312 -0.0625 C7.03319543 -0.10143236 7.03319543 -0.10143236 9.48046875 1.5234375 C10.98871036 3.93009018 11.30145948 6.50828297 11.90625 9.25 C13.19352785 13.1731325 16.19506305 15.32367175 19.5 17.5625 C22.27244473 18.48664824 24.66132543 18.43920704 27.5625 18.25 C28.5525 17.755 28.5525 17.755 29.5625 17.25 C32.3125 16.6875 32.3125 16.6875 35.5625 17.25 C40.07818878 21.4461825 42.32485895 26.30932294 43.5625 32.25 C42.4178125 33.36375 42.4178125 33.36375 41.25 34.5 C37.16972814 38.6751619 35.04148677 41.10227303 34.5 47.16015625 C34.60670285 50.72803292 35.79940955 53.19397655 37.5625 56.25 C38.47 56.91 39.3775 57.57 40.3125 58.25 C41.055 58.91 41.7975 59.57 42.5625 60.25 C42.89679648 65.93304015 40.29618919 69.82137732 37.328125 74.4296875 C35.09068322 76.73643058 33.74116418 77.03744495 30.5625 77.25 C28.3515625 76.8046875 28.3515625 76.8046875 26.1875 76.125 C22.60023752 75.24758305 21.50045701 75.26729067 17.75 76.3125 C11.27369592 80.24907699 9.56916452 85.27228018 7.5625 92.25 C4.77057795 92.30380578 1.9796859 92.34357669 -0.8125 92.375 C-1.6065625 92.39175781 -2.400625 92.40851563 -3.21875 92.42578125 C-5.29242015 92.44335473 -7.36633241 92.35335168 -9.4375 92.25 C-11.75241729 89.93508271 -11.76962444 89.0784171 -12.25 85.9375 C-13.21547836 81.35332031 -14.52636924 79.05581119 -18.4375 76.25 C-22.98106861 74.18654526 -26.35613857 74.0568313 -31.125 75.4375 C-33.3984375 76.03125 -33.3984375 76.03125 -35.4375 76.25 C-40.28859001 73.12374199 -42.89692878 67.73203264 -44.4375 62.25 C-43.70404592 57.63971722 -40.64450469 55.45700469 -37.4375 52.25 C-35.21291862 48.76804653 -35.41704832 46.5247283 -36.25 42.625 C-36.88717129 40.119078 -37.6191117 37.70516491 -38.4375 35.25 C-40.40422915 34.0999169 -40.40422915 34.0999169 -42.4375 33.25 C-42.7675 32.92 -43.0975 32.59 -43.4375 32.25 C-43.30613435 25.94444866 -40.84815423 20.79726741 -36.4375 16.25 C-32.26487579 14.91450465 -30.39531956 15.60895286 -26.4375 17.25 C-21.69455218 17.74405706 -19.36065937 16.86543958 -15.4375 14.25 C-14.7775 14.25 -14.1175 14.25 -13.4375 14.25 C-12.95641725 12.83398286 -12.47771859 11.41715563 -12 10 C-11.73316406 9.21109375 -11.46632812 8.4221875 -11.19140625 7.609375 C-10.40707954 5.29130241 -10.40707954 5.29130241 -9.96484375 3.015625 C-9.79082031 2.43296875 -9.61679688 1.8503125 -9.4375 1.25 C-6.41891234 -0.25929383 -3.30849046 0.02489927 0 0 Z M-14.75 34.8125 C-18.63760318 39.55721254 -18.84323549 43.02684474 -18.77734375 49.1328125 C-18.18969402 54.52297902 -15.97563008 58.1821173 -11.79296875 61.58984375 C-7.18729921 64.51127296 -2.64476871 65.74079201 2.7578125 64.9140625 C9.17020969 63.24031815 12.88742409 59.67511206 16.5625 54.25 C18.17271592 49.41935225 18.52052887 44.1021888 16.87890625 39.21484375 C14.14440183 34.05219018 10.12651003 30.10467001 4.5625 28.25 C-3.63481351 27.51633339 -9.14220139 28.44904059 -14.75 34.8125 Z " fill="#FD812A" transform="translate(188.4375,145.75)"/>
<path d="M0 0 C7.26 0 14.52 0 22 0 C22 7.59 22 15.18 22 23 C14.74 23 7.48 23 0 23 C0 15.41 0 7.82 0 0 Z " fill="#FD6A27" transform="translate(47,119)"/>
<path d="M0 0 C7.26 0 14.52 0 22 0 C22 7.26 22 14.52 22 22 C14.74 22 7.48 22 0 22 C0 14.74 0 7.48 0 0 Z " fill="#FC5A25" transform="translate(47,167)"/>
<path d="M0 0 C7.26 0 14.52 0 22 0 C22 7.26 22 14.52 22 22 C14.74 22 7.48 22 0 22 C0 14.74 0 7.48 0 0 Z M11.8125 8.5 C10.884375 9.325 9.95625 10.15 9 11 C7.68 10.34 6.36 9.68 5 9 C4.67 10.32 4.34 11.64 4 13 C6.475 14.98 6.475 14.98 9 17 C10.12588014 16.04270084 11.2506715 15.08412105 12.375 14.125 C13.00148438 13.59132813 13.62796875 13.05765625 14.2734375 12.5078125 C15.55836651 11.38567993 16.79371975 10.20628025 18 9 C18 8.01 18 7.02 18 6 C14.6133629 6 14.22330713 6.35706033 11.8125 8.5 Z " fill="#FD7929" transform="translate(47,72)"/>
</svg>
